<mxfile host="app.diagrams.net" modified="2024-07-10T13:56:24.565Z" agent="Mozilla/5.0 (Windows NT 10.0; Win64; x64; rv:127.0) Gecko/20100101 Firefox/127.0" etag="UWl7t1CYD8Hi0z8kDPIa" version="24.6.4" type="github">
  <diagram name="Page-1" id="jIIEvX2qblDGGFT4HYNp">
    <mxGraphModel dx="6050" dy="3170" grid="1" gridSize="10" guides="1" tooltips="1" connect="1" arrows="1" fold="1" page="1" pageScale="1" pageWidth="3300" pageHeight="2339" background="none" math="0" shadow="0">
      <root>
        <mxCell id="0" />
        <mxCell id="1" parent="0" />
        <mxCell id="4aFcUp6XhzjaDVVZE7hP-1" value="&lt;font style=&quot;font-size: 40px;&quot;&gt;Functions&lt;/font&gt;" style="text;html=1;align=center;verticalAlign=middle;resizable=0;points=[];autosize=1;strokeColor=none;fillColor=none;" vertex="1" parent="1">
          <mxGeometry x="40" y="40" width="200" height="60" as="geometry" />
        </mxCell>
      </root>
    </mxGraphModel>
  </diagram>
</mxfile>
